<?xml version="1.0" encoding="utf-8"?>
<!-- Generator: Adobe Illustrator 23.0.3, SVG Export Plug-In . SVG Version: 6.00 Build 0)  -->
<svg version="1.1" id="Layer_1" xmlns="http://www.w3.org/2000/svg" xmlns:xlink="http://www.w3.org/1999/xlink" x="0px" y="0px"
	 viewBox="0 0 1200 1200" enable-background="new 0 0 1200 1200" xml:space="preserve">
<path d="M538.537,776.794c23.507,0,41.919-31.434,41.919-71.564c0-8.363-0.904-16.499-2.469-24.206l9.8,2.151
	c0.617,0.138,1.231,0.2,1.84,0.2c3.926,0,7.46-2.72,8.336-6.713c1.014-4.61-1.903-9.167-6.513-10.176l-23.265-5.107
	c-0.022-0.005-0.044-0.009-0.065-0.014l-88.484-19.424c-4.581-1.022-9.162,1.903-10.176,6.513s1.903,9.167,6.513,10.176
	l27.749,6.092c-4.61,11.743-7.104,25.727-7.104,40.509C496.618,745.36,515.03,776.794,538.537,776.794z M520.705,668.45
	l38.693,8.494c2.553,8.583,3.968,18.217,3.968,28.287c0,6.269-0.55,12.198-1.493,17.704c-3.161-15.577-12.139-26.249-23.337-26.249
	c-11.197,0-20.175,10.672-23.337,26.249c-0.942-5.507-1.493-11.435-1.493-17.704C513.707,691.611,516.237,678.595,520.705,668.45z
	 M624.612,683.376c0.605,0,1.222-0.063,1.84-0.2l9.8-2.151c-1.566,7.708-2.47,15.843-2.47,24.206
	c0,40.129,18.412,71.564,41.919,71.564s41.919-31.434,41.919-71.564c0-14.785-2.492-28.768-7.104-40.51l27.744-6.091
	c4.61-1.01,7.527-5.566,6.513-10.176c-1.01-4.606-5.557-7.535-10.176-6.513l-111.81,24.546c-4.61,1.01-7.527,5.566-6.513,10.176
	C617.152,680.656,620.686,683.376,624.612,683.376z M654.84,676.944l38.693-8.494c4.468,10.142,6.999,23.158,6.999,36.781
	c0,6.269-0.55,12.198-1.493,17.704c-3.161-15.577-12.139-26.249-23.337-26.249s-20.175,10.672-23.337,26.249
	c-0.942-5.507-1.493-11.435-1.493-17.704C650.872,695.161,652.287,685.527,654.84,676.944z M1090.205,959.029
	c-9.613-14.019-23.757-24.658-40.296-31.08c-21.087-10.527-43.292-22.747-66.757-35.661c-47.764-26.291-97.1-53.416-143.336-69.675
	c22.666-22.012,38.221-44.279,47.31-67.807c1.275-3.303,2.371-6.642,3.365-9.993c88.009-43.599,158.524-123.778,189.951-216.793
	c30.602-90.596,24.251-193.961-16.321-280.63c14.138-12.69,15.736-24.629,15.161-31.292c-0.716-8.293-5.079-15.582-12.248-20.962
	c7.525-12.543,10.835-27.688,8.071-42.357c-2.466-13.089-8.963-22.466-17.805-26.411c-5.77-23.132-23.733-58.53-48.81-71.292
	c-13.043-6.642-27.007-6.763-40.371-0.367c-7.898,3.786-13.841,9.178-17.607,15.801c-10.326-3.192-22.8-2.642-32.269,4.568
	c-4.826,3.675-11.151,11.019-12.296,24.368c-7.231,0.861-13.99,4.48-18.905,10.546c-9.363,11.549-9.792,28.493-1.147,45.324
	c12.355,24.04,26.523,38.383,40.865,41.759c4.93,14.497,14.977,35.216,33.753,43.928c0.099,0.046,0.203,0.076,0.302,0.121
	c-0.787,5.811,0.648,13.323,6.87,22.226c5.929,8.478,15.846,12.65,28.28,12.65c6.97,0,14.762-1.39,23.052-3.99
	c33.901,74.279,38.962,162.314,12.851,239.6c-24.036,71.143-74.599,133.523-138.638,173.035c-1.22-5.555-2.866-10.94-4.951-16.088
	c-16.646-52.853-7.198-107.283,4.062-144.3c15.258-50.147,41.381-96.973,66.649-142.259c1.385-2.487,1.444-5.503,0.15-8.044
	c-1.293-2.537-3.768-4.264-6.592-4.602c-45.505-5.461-93.723,11.581-126.369,43.84c-0.888-8.948-1.462-17.903-1.396-26.763
	c0.342-46.455,18.367-92.905,49.45-127.431c2.082-2.311,2.741-5.57,1.723-8.512c-1.014-2.937-3.551-5.094-6.613-5.624
	c-38.344-6.646-82.04,4.698-119.896,31.134c-29.711,20.749-53.343,48.061-72.895,74.113c-9.688-55.988,5.862-115.623,42.428-159.403
	c2.253-2.699,2.624-6.5,0.935-9.584c-1.694-3.088-5.14-4.836-8.582-4.368c-72.748,9.348-139.519,38.741-189.858,82.481
	c-6.585-47.221-0.684-96.851,16.982-141.019c1.302-3.254,0.48-6.976-2.07-9.384c-2.545-2.407-6.309-3.021-9.484-1.527
	c-57.578,26.916-105.013,73.011-133.564,129.793c-20.766,41.306-31.034,87.26-30.187,133.21
	c-7.068-20.111-11.511-41.147-13.109-62.393c-0.288-3.872-3.15-7.055-6.964-7.765c-3.805-0.705-7.627,1.243-9.283,4.752
	c-28.368,60.069-42.654,118.239-42.458,172.901c0.229,63.605,20.485,122.175,57.025,165.408c-0.878,6.544-1.508,12.902-1.75,18.925
	c-0.838,20.845,1.97,42.244,8.306,64.022c-76.054-29.101-141.819-87.55-176.947-160.582
	c-43.195-89.799-40.246-202.003,6.672-289.965c6.256,1.795,12.199,2.794,17.619,2.793c10.589,0,19.322-3.471,25.163-10.585
	c6.893-8.395,8.905-15.774,8.569-21.629c0.103-0.037,0.207-0.062,0.309-0.1c19.406-7.238,31.024-27.141,37.053-41.214
	c14.553-2.262,29.785-15.446,43.956-38.457c9.918-16.113,10.802-33.036,2.357-45.278c-4.436-6.43-10.896-10.556-18.038-11.972
	c-0.11-13.399-5.85-21.209-10.376-25.245c-8.886-7.919-21.278-9.434-31.822-7.046c-3.245-6.894-8.752-12.729-16.335-17.111
	c-12.826-7.414-26.745-8.361-40.284-2.75c-25.988,10.791-46.627,44.694-54.162,67.311c-9.123,3.25-16.324,12.098-19.788,24.956
	c-3.893,14.414-1.762,29.771,4.773,42.858c-7.561,4.813-12.473,11.742-13.827,19.956c-1.26,7.629-0.159,22.522,19.841,38.941
	c-55.505,103.279-58.86,230.796-7.887,336.759c48.343,100.507,142.327,174.985,250.29,200.402
	c21.212,36.199,54.172,65.78,96.021,86.341c-57.512,20.783-111.13,42.338-160.321,64.516c-35.298,4.619-71.818,32.707-81.865,63.19
	c-10.139,30.763-4.827,66.757,14.215,96.276c17.294,26.811,43.572,45.09,72.098,50.147c5.069,0.897,10.189,1.331,15.287,1.331
	c17.15,0,34.015-4.963,47.905-13.84c1.364-0.088,2.729-0.445,3.969-1.218c88.453-55.167,183.728-98.93,283.175-130.085
	c0.218-0.068,0.408-0.179,0.616-0.263c16.406,9.764,34.152,16.68,51.459,23.419l180.828,70.445
	c22.923,16.86,44.761,22.038,63.962,22.038c19.08,0,35.557-5.111,47.911-8.941c32.995-10.231,60.311-31.267,74.939-57.72
	C1109.077,1023.433,1108.25,985.331,1090.205,959.029z M963.613,83.184c1.49-5.67,5.378-9.943,11.891-13.064
	c8.62-4.126,16.873-4.072,25.234,0.184c17.546,8.929,32.175,34.952,38.384,54.584c-2.531,0.44-4.964,1.02-7.271,1.579
	c-1.102,0.267-2.144,0.496-3.2,0.734c-1.934-9.721-7.031-24.884-20.557-35.711c-3.684-2.946-9.058-2.353-12.012,1.331
	c-2.95,3.684-2.353,9.062,1.331,12.012c8.308,6.651,12.121,16.087,13.87,23.024c-4.749-0.518-9.772-1.464-15.201-2.946
	c-2.069-0.563-4.239-1.306-6.475-2.061c-5.193-1.759-11.037-3.731-17.091-4.306C967.667,110.363,960.547,94.823,963.613,83.184z
	 M928.599,88.674c4.659-3.557,11.59-3.616,17.302-1.702c-0.634,13.201,4.664,26.478,9.135,35.152
	c-0.049,0.029-0.098,0.05-0.147,0.079c-9.204,5.496-14.583,16.619-14.093,27.898c-4.897-5.181-10.387-14.006-15.034-29.254
	C920.976,105.138,921.981,93.71,928.599,88.674z M935.479,180.553c-9.709,1.936-22.885-10.669-34.38-33.049
	c-5.457-10.623-5.749-20.624-0.78-26.749c1.843-2.28,4.213-3.724,6.78-4.247c0.575,2.934,1.308,6.011,2.316,9.321
	c10.258,33.66,25.988,44.181,36.343,47.34C944.044,176.099,940.832,179.456,935.479,180.553z M1043.83,241.323
	c-27.433,17.465-54.728,22.835-62.134,12.237c-2.842-4.067-3.793-6.918-3.974-8.761c0.022,0,0.043,0.003,0.065,0.003
	c6.588,0,13.41-1.527,20.257-4.577c4.31-1.923,6.246-6.976,4.327-11.286c-1.923-4.314-6.984-6.238-11.286-4.327
	c-8.67,3.868-16.318,4.16-23.378,0.885c-9.305-4.317-17.527-15.032-23.263-29.884c6.197-2.447,11.423-6.705,15.127-12.381
	c4.85,3.702,10.418,6.706,16.622,8.732c20.707,6.759,43.209,2.049,60.211-12.571c3.58-3.079,3.984-8.474,0.91-12.05
	c-3.079-3.58-8.478-3.98-12.05-0.91c-12.438,10.694-28.793,14.165-43.768,9.283c-8.145-2.658-14.705-7.587-18.928-13.835
	c-0.299-0.581-0.646-1.124-1.059-1.612c-1.503-2.557-2.65-5.297-3.328-8.197c-1.202-5.149,0.513-12.237,5.474-15.2
	c4.731-2.841,11.19-0.98,20.469,2.161c2.574,0.872,5.078,1.715,7.46,2.366c10.623,2.893,20.17,4.141,29.119,3.921
	c0.199,0.014,0.39,0.059,0.592,0.059c0.058,0,0.117,0,0.175,0c0.214-0.004,0.413-0.056,0.622-0.076
	c0.446-0.019,0.912,0.011,1.356-0.016c4.385-0.259,8.478-1.252,12.433-2.211c4.702-1.143,9.133-2.224,12.872-1.665
	c5.178,0.772,8.386,8.307,9.555,14.528c3.847,20.398-9.304,42.946-28.718,49.238c-7.039,2.278-15.083,2.232-24.592-0.125
	c-4.573-1.135-9.217,1.656-10.352,6.238c-1.135,4.581,1.656,9.217,6.238,10.352c6.217,1.54,12.05,2.311,17.578,2.311
	c5.77,0,11.207-0.839,16.393-2.52c8.109-2.627,15.359-7.171,21.468-12.959c3.519,2.516,5.638,5.673,5.932,9.095
	C1062.881,224.813,1056.167,233.471,1043.83,241.323z M296.142,135.2c1.26-3.219,2.228-6.228,3.027-9.107
	c2.517,0.72,4.774,2.34,6.436,4.751c4.481,6.496,3.421,16.443-2.841,26.611c-13.193,21.417-27.287,33.049-36.829,30.295
	c-5.256-1.507-8.201-5.104-9.683-8.159C266.817,177.245,283.315,167.98,296.142,135.2z M262.767,93.645
	c5.84-1.464,12.746-0.868,17.12,3.032c6.204,5.533,6.325,17.002,0.342,32.298c-5.814,14.854-11.983,23.26-17.247,28.051
	c1.375-11.218-3.133-22.745-11.892-28.948c-0.047-0.033-0.095-0.058-0.142-0.091C256.074,119.683,262.381,106.854,262.767,93.645z
	 M209.374,72.799c8.662-3.601,16.902-3.021,25.176,1.761c6.242,3.605,9.788,8.157,10.844,13.911
	c2.163,11.776-6.15,26.789-11.614,34.603c-6.075,0.107-12.049,1.618-17.358,2.969c-2.286,0.584-4.51,1.156-6.621,1.56
	c-5.525,1.061-10.602,1.619-15.381,1.769c2.281-6.788,6.81-15.903,15.607-21.892c3.901-2.654,4.911-7.969,2.257-11.87
	c-2.649-3.905-7.977-4.911-11.87-2.257c-14.325,9.75-20.58,24.476-23.259,34.018c-1.034-0.319-2.055-0.627-3.131-0.978
	c-2.253-0.736-4.659-1.468-7.145-2.101C174.576,105.193,191.181,80.352,209.374,72.799z M136.676,214.875
	c0.561-3.39,2.916-6.372,6.617-8.609c5.643,6.241,12.521,11.331,20.403,14.576c6.371,2.62,13.443,3.935,21.133,3.935
	c4.072,0,8.32-0.367,12.726-1.106c4.652-0.78,7.794-5.186,7.014-9.842c-0.78-4.652-5.153-7.781-9.842-7.014
	c-9.655,1.627-17.678,1.043-24.521-1.777c-18.876-7.769-30.245-31.259-24.838-51.303c1.648-6.112,5.424-13.376,10.652-13.748
	c3.743-0.267,8.103,1.156,12.705,2.654c3.872,1.26,7.873,2.566,12.229,3.167c0.495,0.068,1.019,0.076,1.518,0.134
	c0.138,0.021,0.265,0.068,0.406,0.083c0.292,0.029,0.584,0.046,0.872,0.046c0.029,0,0.056-0.008,0.084-0.008
	c8.885,0.881,18.444,0.383,29.184-1.678c2.428-0.463,4.99-1.11,7.619-1.777c9.5-2.428,16.068-3.763,20.582-0.58
	c4.711,3.338,5.879,10.543,4.281,15.579c-3.371,10.644-12.742,18.784-25.067,21.775c-15.317,3.709-31.351-1.01-42.925-12.634
	c-3.325-3.342-8.733-3.355-12.083-0.025c-3.346,3.33-3.355,8.737-0.025,12.083c15.83,15.897,37.906,22.33,59.063,17.182
	c6.342-1.54,12.125-4.105,17.245-7.42c3.256,5.945,8.138,10.595,14.124,13.513c-6.865,14.363-15.888,24.414-25.499,28
	c-7.289,2.712-14.883,1.84-23.24-2.687c-4.151-2.27-9.342-0.709-11.582,3.438c-2.253,4.147-0.709,9.333,3.438,11.582
	c6.62,3.591,13.327,5.548,19.928,6.046c-0.302,1.823-1.461,4.626-4.657,8.519c-8.207,9.993-35.01,2.524-61.008-16.994
	C141.52,231.201,135.495,222.051,136.676,214.875z M835.581,490.803c-0.926-15.321-3.129-30.616-5.266-45.412
	c-0.493-3.422-0.984-6.869-1.466-10.326c0.563-0.404,1.098-0.857,1.566-1.411c25.455-30.208,65.38-48.236,104.934-48.236
	c0.722,0,1.439,0.004,2.157,0.017c-23.578,42.424-47.064,86.35-61.513,133.848c-9.102,29.916-17.038,70.632-12.473,113.469
	c-11.179-11.069-24.037-20.438-36.694-29.576c-5.861-4.231-11.796-8.548-17.562-13.021
	C834.046,561.031,837.376,520.519,835.581,490.803z M693,196.917c-34.155,50.919-45.278,116.395-28.893,175.721
	c0.876,3.179,3.501,5.566,6.747,6.142c3.25,0.576,6.534-0.772,8.445-3.455c20.741-29.069,46.459-61.938,79.938-85.32
	c29.144-20.353,61.951-30.821,91.862-29.861c-27.412,35.903-43.071,81.026-43.405,126.158c-0.154,20.845,2.825,41.527,5.708,61.525
	c2.086,14.453,4.239,29.394,5.124,44.01c1.602,26.519-1.17,62.474-22.358,87.32c-2.011-1.828-4.042-3.645-5.922-5.555
	c-32.448-32.961-45.311-83.033-32.782-127.56c1.043-3.705-0.517-7.644-3.809-9.634c-3.296-1.982-7.506-1.519-10.297,1.122
	c-22.472,21.333-45.708,43.396-63.344,70.203c-11.849,18.016-25.013,44.485-26.653,74.839
	c-23.498-20.436-40.805-51.24-49.438-88.524c-9.342-40.342-8.065-82.846-6.83-123.951c0.096-3.238-1.644-6.25-4.494-7.786
	c-2.85-1.531-6.325-1.323-8.971,0.542c-64.316,45.361-98.742,127.293-87.919,204.803c-7.701-5.606-16.103-12.627-24.511-20.64
	c-30.917-83.133-19.52-181.722,27.995-240.43C544.307,250.844,614.127,211.541,693,196.917z M352.348,620.631
	c-28.215-38.816-43.722-88.838-43.919-142.888c-0.154-43.738,9.5-90.014,28.739-137.908c5.883,29.807,16.981,58.604,32.715,84.594
	c2.153,3.555,6.546,5.053,10.427,3.53c3.868-1.515,6.087-5.595,5.253-9.667c-11.97-58.525-3.788-120.146,23.048-173.518
	c23.636-47.014,61.049-86.229,106.619-112.198c-14.113,45.131-17.274,94.253-8.841,140.593c-7.26,7.233-14.107,14.792-20.482,22.67
	c-44.505,54.988-59.736,142-41.239,222.008c-9.139-11.698-17.213-24.224-22.994-36.911c-1.331-2.921-4.185-4.848-7.393-4.994
	c-3.342-0.129-6.221,1.519-7.811,4.31C384.968,518.006,362.641,572.712,352.348,620.631z M405.403,792.874
	c3.455,0.576,6.919,1.116,10.397,1.59c1.172,0.159,2.341,0.238,3.496,0.238c12.617,0,23.611-9.321,25.368-22.176
	c1.911-14.027-7.911-26.949-21.938-28.864c-16.116-2.198-32.052-5.753-47.646-10.54c-8.474-24.101-12.303-47.621-11.393-70.303
	c1.857-46.112,25.927-113.379,50.055-160.117c11.457,19.735,27.37,38.991,43.919,55.08c0.08,0.086,0.17,0.16,0.254,0.242
	c15.862,15.384,32.288,27.855,45.928,34.967c2.975,1.552,6.58,1.218,9.225-0.851c2.637-2.069,3.822-5.495,3.025-8.754
	c-17.244-70.571,8.653-148.501,63.403-195.653c-0.901,36.479-0.659,73.742,7.777,110.17c11.228,48.507,36.241,87.306,70.433,109.252
	c2.77,1.773,6.309,1.798,9.104,0.079c2.8-1.727,4.356-4.907,4.005-8.178c-3.505-32.899,10.831-62.714,23.474-81.932
	c11.762-17.878,26.528-33.842,41.903-49c-3.609,42.729,11.582,86.692,41.869,117.463c11.745,11.937,25.48,21.855,38.761,31.443
	c20.962,15.133,40.759,29.427,52.121,50.427c1.228,2.269,2.308,4.633,3.307,7.045c0.709,2.22,1.375,4.441,2.172,6.656
	c0.137,0.381,0.382,0.682,0.565,1.031c1.116,3.725,1.978,7.572,2.598,11.51c-6.434,3.477-12.94,6.811-19.598,9.819
	c-12.905,5.829-18.638,21.012-12.809,33.913c4.281,9.48,13.61,15.091,23.378,15.091c0.329,0,0.66-0.039,0.99-0.052
	c-9.267,21.916-25.038,42.912-48.135,63.987c-5.56-1.793-11.104-3.552-16.55-5.272c-21.204-6.697-43.125-13.623-63.582-22.293
	c-29.582-12.529-68.589-0.146-91.845,18.554c-5.744,4.621-10.941,9.891-15.604,15.623c-46.166,13.962-90.462,28.409-132.753,43.271
	c-0.321-0.186-0.631-0.385-0.982-0.531C459.91,849.026,427.517,823.993,405.403,792.874z M391.379,1108.022
	c-14.315,18.725-40.897,28.297-66.194,23.816c-23.507-4.164-46.208-20.086-60.716-42.578
	c-16.272-25.226-20.887-55.755-12.346-81.665c8.061-24.454,39.04-47.898,67.992-51.612c35.452,4.247,50.151,29.181,65.706,55.567
	c1.569,2.658,3.133,5.307,4.715,7.936C405.081,1043.635,411.552,1081.641,391.379,1108.022z M415.693,1099.2
	c5.838-15.103,6.782-31.402,4.403-47.002c0.674-0.719,1.268-1.524,1.674-2.485c4.335-10.268,17.202-15.029,24.487-16.956
	c4.473-1.185,9.062-2.032,13.923-2.929c8.086-1.494,16.447-3.037,24.596-6.275c7.706-3.067,14.516-7.364,21.095-11.52
	c1.969-1.243,3.939-2.487,5.925-3.688c20.953-12.696,44.848-21.22,69.106-24.65c4.673-0.663,7.923-4.986,7.264-9.659
	c-0.663-4.673-5.036-7.952-9.659-7.264c-26.523,3.751-52.655,13.072-75.565,26.953c-2.078,1.26-4.135,2.558-6.192,3.859
	c-6.2,3.914-12.054,7.606-18.287,10.089c-6.588,2.616-13.777,3.943-21.387,5.349c-4.961,0.918-10.089,1.865-15.191,3.213
	c-11.366,3.007-20.636,7.991-27.26,14.466c-2.578-7.145-5.765-13.915-9.452-20.037c-1.552-2.578-3.088-5.186-4.627-7.798
	c-12.897-21.871-27.149-46.046-54.524-57.649c80.674-35.185,172.555-68.74,273.744-99.983c-6.706,13.888-10.7,29.209-11.479,44.851
	c-9.43,5.678-21.399,7.216-34.018,8.798c-5.941,0.747-12.087,1.519-18.099,2.758c-19.798,4.089-37.492,13.205-54.603,22.017
	c-4.193,2.161-5.845,7.314-3.684,11.511c1.519,2.942,4.506,4.631,7.606,4.631c1.314,0,2.654-0.305,3.905-0.947
	c16.088-8.29,32.724-16.86,50.231-20.474c5.357-1.106,10.902-1.802,16.773-2.541c10.946-1.372,22.127-2.845,32.479-7.044
	c3.706,31.911,20.82,62.638,46.68,83.581C572.099,1019.442,491.63,1055.269,415.693,1099.2z M897.822,1002.636
	c-20.261-7.333-41.514-10.149-62.149-12.874l-58.158-7.677c-4.631-0.601-8.971,2.666-9.588,7.352
	c-0.622,4.677,2.67,8.971,7.352,9.588l58.158,7.677c20.174,2.667,40.953,5.458,59.915,12.542
	c-3.676,18.784-3.088,38.445,1.894,56.898l-164.427-64.049c-21.996-8.57-44.744-17.428-63.219-31.918
	c-24.667-19.355-40.451-48.812-42.232-78.79c-0.112-1.886-0.163-3.771-0.163-5.654c0.065-0.539,0.079-1.082,0.041-1.625
	c0.349-21.154,7.598-41.799,20.105-58.103c0.088-0.104,0.169-0.21,0.252-0.317c1.555-2.009,3.192-3.944,4.904-5.812
	c10.556,1.883,21.345,3.891,31.608,6.781c16.735,4.702,33.128,12.025,48.983,19.105c1.131,0.505,2.316,0.747,3.48,0.747
	c3.267,0,6.388-1.886,7.806-5.065c1.923-4.31-0.008-9.363-4.318-11.286c-16.414-7.331-33.387-14.912-51.324-19.952
	c-6.409-1.805-12.89-3.259-19.349-4.553c13.388-8.562,30.884-14.778,47.207-14.778c7.043,0,13.856,1.152,20.01,3.759
	c21.204,8.983,43.521,16.034,65.101,22.852c10.072,3.179,20.486,6.471,30.612,9.905c45.954,15.584,96.097,43.179,144.588,69.87
	c8.829,4.861,17.482,9.626,25.973,14.24c-1.51,0.15-3.029,0.33-4.548,0.542c-14.779,2.063-29.089,7.048-42.146,14.317
	c-8.774-9.452-21.63-15.703-38.384-18.519c-7.122-1.197-14.253-1.727-21.149-2.236c-6.626-0.492-12.884-0.96-19.072-1.965
	c-33.938-5.528-64.053-27.479-90.627-46.847c-3.822-2.779-9.158-1.936-11.937,1.873c-2.779,3.814-1.94,9.158,1.873,11.937
	c28.113,20.494,59.981,43.722,97.945,49.901c6.922,1.131,13.852,1.644,20.553,2.14c6.805,0.509,13.239,0.985,19.585,2.053
	c8.209,1.377,18.922,4.453,26.566,11.188c-13.787,10.384-25.474,23.534-33.751,38.642
	C902.618,990.321,899.981,996.393,897.822,1002.636z M1077.304,1045.567c-12.517,22.627-36.224,40.73-65.042,49.667
	c-30.291,9.384-60.419,15.663-95.759-9.863c-12.659-29.323-11.078-64.612,4.277-92.634c15.696-28.651,45.553-49.254,77.918-53.773
	c15.963-2.22,31.927-0.171,45.733,5.349c0.309,0.146,0.622,0.275,0.939,0.38c12.709,5.261,23.528,13.481,30.742,24.003
	C1090.589,989.795,1091.065,1020.687,1077.304,1045.567z M834.93,953.734c-1.485,3.021-4.519,4.769-7.673,4.769
	c-1.264,0-2.553-0.28-3.768-0.88c-25.172-12.4-51.203-25.222-78.986-28.08c-4.973-0.509-9.964-0.701-15.246-0.901
	c-6.1-0.234-12.409-0.476-18.746-1.252c-15.083-1.848-27.091-6.697-35.694-14.415c-3.513-3.15-3.805-8.553-0.651-12.066
	c3.146-3.513,8.549-3.809,12.066-0.651c5.946,5.332,14.812,8.758,26.357,10.168c5.628,0.693,11.307,0.91,17.319,1.139
	c5.324,0.2,10.823,0.413,16.343,0.98c30.833,3.171,59.497,17.29,84.79,29.749C835.276,944.38,837.016,949.499,834.93,953.734z
	 M1020.277,965.471c-9.576-6.15-20.378-7.064-30.425-2.578c-28.259,12.621-39.245,41.281-46.263,67.646v0.004
	c-1.932,7.251-6.446,24.241,4.431,35.252c5.562,5.633,12.734,7.26,19.389,7.26c6.354,0,12.237-1.485,15.788-2.378
	c12.813-3.234,27.333-6.901,39.766-15.05c15.012-9.843,23.891-24.75,23.749-39.879
	C1046.563,999.279,1036.633,975.973,1020.277,965.471z M1013.593,1041.332c-10.03,6.576-22.51,9.726-34.576,12.771
	c-6.363,1.598-15.242,3.317-18.838-0.317c-3.592-3.638-1.765-12.5-0.075-18.85c6.284-23.603,15.079-46.772,36.716-56.439
	c4.877-2.178,9.396-1.744,14.223,1.352c10.819,6.947,18.475,24.579,18.579,36.057
	C1029.727,1026.837,1021.412,1036.208,1013.593,1041.332z M453.618,960.472c-0.238,4.711-4.256,8.407-8.962,8.103
	c-8.165-0.363-16.443,1.823-23.311,6.275c-1.435,0.93-3.05,1.377-4.644,1.377c-2.8,0-5.541-1.373-7.176-3.893
	c-2.57-3.96-1.444-9.25,2.516-11.82c9.855-6.396,21.734-9.58,33.475-9.004C450.23,951.744,453.855,955.758,453.618,960.472z
	 M312.301,993.096c-11.415-0.288-21.654,4.727-29.79,14.778c-11.319,13.977-16.831,36.696-12.826,52.842
	c6.229,25.092,31.347,43.83,57.006,43.83c2.395,0,4.798-0.163,7.189-0.501c13.898-1.961,25.835-9.354,31.935-19.777
	c5.161-8.829,6.58-20.119,4.101-32.64C365.215,1027.843,341.019,994.068,312.301,993.096z M351.062,1075.641
	c-3.48,5.954-10.798,10.243-19.568,11.482c-19.393,2.712-40.505-11.532-45.22-30.521c-2.395-9.651,0.563-26.916,9.517-37.977
	c4.548-5.616,9.713-8.457,15.362-8.457c0.188,0,0.38,0,0.572,0.008c19.022,0.643,37.951,27.187,41.427,44.769
	C354.308,1060.779,354.884,1069.107,351.062,1075.641z M581.708,142.881c0.693-4.673,5.086-7.882,9.709-7.197
	c5.27,0.785,10.553,1.224,15.833,1.369l-0.688-24.684c-0.133-4.719,3.584-8.649,8.303-8.779c4.798-0.238,8.649,3.588,8.779,8.303
	l0.683,24.511c4.531-0.469,9.048-1.145,13.536-2.085c4.644-0.98,9.15,1.994,10.114,6.609c0.968,4.619-1.99,9.146-6.609,10.114
	c-5.49,1.152-11.018,1.962-16.564,2.487l0.259,9.271c0.134,4.719-3.584,8.649-8.303,8.779c-0.079,0.004-0.163,0.004-0.242,0.004
	c-4.61,0-8.407-3.672-8.537-8.307l-0.256-9.174c-6.278-0.132-12.558-0.581-18.82-1.511
	C584.236,151.893,581.015,147.55,581.708,142.881z M764.869,190.562c-0.121-4.719,3.609-8.637,8.328-8.754l16.022-0.397
	l-1.031-19.092c-0.255-4.711,3.359-8.737,8.073-8.991c4.723-0.221,8.737,3.359,8.991,8.073l1.057,19.586l11.982-0.297
	c0.075-0.004,0.146-0.004,0.217-0.004c4.623,0,8.424,3.688,8.537,8.332c0.117,4.719-3.613,8.637-8.328,8.754l-11.486,0.285
	l0.926,17.16c0.255,4.711-3.359,8.737-8.073,8.991c-0.154,0.008-0.313,0.013-0.467,0.013c-4.506,0-8.278-3.53-8.524-8.086
	l-0.952-17.654l-16.517,0.41c-0.071,0.004-0.146,0.004-0.217,0.004C768.786,198.895,764.981,195.206,764.869,190.562z
	 M979.038,551.218l-14.75,0.919l0.973,14.681c0.309,4.706-3.254,8.779-7.965,9.091c-0.192,0.013-0.38,0.017-0.572,0.017
	c-4.46,0-8.219-3.463-8.52-7.982l-0.977-14.745l-14.731,0.918c-0.184,0.013-0.363,0.017-0.542,0.017
	c-4.477,0-8.236-3.484-8.52-8.011c-0.292-4.711,3.288-8.77,7.994-9.062l14.67-0.914l-0.784-11.841
	c-0.309-4.706,3.254-8.779,7.965-9.091c4.752-0.338,8.779,3.254,9.091,7.965l0.789,11.904l14.812-0.923
	c4.794-0.334,8.77,3.284,9.062,7.994C987.324,546.866,983.744,550.926,979.038,551.218z M626.744,454.766
	c-0.334-4.706,3.213-8.791,7.923-9.125l14.525-1.024l-0.539-16.588c-0.154-4.719,3.546-8.666,8.261-8.82
	c4.877-0.275,8.666,3.546,8.82,8.261l0.518,15.944l9.141-0.644c4.715-0.288,8.791,3.217,9.125,7.923
	c0.33,4.711-3.217,8.795-7.923,9.125l-9.786,0.69l0.486,14.956c0.154,4.719-3.546,8.666-8.261,8.82
	c-0.096,0.004-0.192,0.004-0.284,0.004c-4.59,0-8.386-3.642-8.537-8.265l-0.465-14.313l-13.879,0.978
	c-0.204,0.013-0.409,0.021-0.609,0.021C630.812,462.71,627.061,459.272,626.744,454.766z M256.793,397.305l-13.202,1.729
	l1.37,13.333c0.484,4.694-2.933,8.891-7.627,9.371c-0.296,0.033-0.592,0.046-0.88,0.046c-4.331,0-8.04-3.275-8.491-7.673
	l-1.321-12.857l-14.922,1.954c-0.376,0.046-0.751,0.071-1.122,0.071c-4.222,0-7.894-3.133-8.461-7.435
	c-0.613-4.677,2.683-8.97,7.364-9.584l15.395-2.016l-1.413-13.755c-0.484-4.694,2.933-8.891,7.627-9.371
	c4.756-0.559,8.891,2.937,9.371,7.627l1.364,13.279l12.73-1.667c4.644-0.555,8.971,2.687,9.584,7.364
	C264.766,392.403,261.47,396.692,256.793,397.305z"/>
</svg>
