<?xml version="1.0" encoding="utf-8"?>
<!-- Generator: Adobe Illustrator 23.0.3, SVG Export Plug-In . SVG Version: 6.00 Build 0)  -->
<svg version="1.1" id="Layer_1" xmlns="http://www.w3.org/2000/svg" xmlns:xlink="http://www.w3.org/1999/xlink" x="0px" y="0px"
	 viewBox="0 0 1200 1200" enable-background="new 0 0 1200 1200" xml:space="preserve">
<path d="M657.164,739.612c-0.001-0.109-0.01-0.214-0.01-0.324c0-21.495,9.916-37.702,23.065-37.702
	c13.149,0,23.065,16.207,23.065,37.702c0,0.11-0.009,0.214-0.01,0.324c-5.358,16.56-14.511,26.751-23.055,26.751
	C671.675,766.364,662.521,756.172,657.164,739.612z M539.227,766.364c8.544,0,17.697-10.191,23.055-26.751
	c0.001-0.109,0.01-0.214,0.01-0.324c0-21.495-9.916-37.702-23.065-37.702c-13.149,0-23.065,16.207-23.065,37.702
	c0,0.11,0.009,0.214,0.01,0.324C521.53,756.172,530.684,766.364,539.227,766.364z M169.292,116.935
	c2.279-9.251,8.29-25.465,23.613-35.895c3.002-2.041,7.102-1.269,9.152,1.741c2.046,3.006,1.269,7.102-1.741,9.152
	c-10.878,7.404-15.706,19.12-17.776,26.522c5.898,0.044,12.219-0.53,19.195-1.87c2.209-0.42,4.537-1.016,6.931-1.63
	c5.629-1.433,12.007-3.041,18.394-2.963c4.637-6.465,15.66-23.692,13.008-38.17c-1.205-6.592-5.198-11.764-12.206-15.813
	c-9.144-5.279-18.244-5.91-27.821-1.938c-19.999,8.304-38.151,36.18-45.801,56.496c3.384,0.7,6.621,1.73,9.626,2.71
	C165.732,115.885,167.535,116.452,169.292,116.935z M252.664,149.916c-0.005,0.017-0.014,0.032-0.019,0.049
	c6.598-4.112,15.243-13.208,23.114-33.325c6.51-16.636,6.176-29.292-0.935-35.635c-5.673-5.056-14.396-5.344-21.252-3.119
	c0.141,14.628-7.483,29.151-12.961,37.626c0.633,0.369,1.261,0.762,1.881,1.201C252.291,123.648,256.566,137.612,252.664,149.916z
	 M141.757,231.64c0.027,0.02,0.049,0.04,0.076,0.06c0.128,0.096,0.255,0.181,0.382,0.276c1.608,1.2,3.215,2.363,4.819,3.471
	c0.195,0.135,0.389,0.257,0.584,0.39c1.576,1.079,3.15,2.128,4.715,3.117c0.034,0.022,0.068,0.041,0.101,0.062
	c3.43,2.164,6.826,4.109,10.151,5.828c0.101,0.052,0.202,0.1,0.302,0.151c1.492,0.766,2.968,1.482,4.429,2.155
	c0.456,0.209,0.908,0.402,1.362,0.602c1.034,0.459,2.059,0.899,3.072,1.31c0.977,0.392,1.947,0.759,2.91,1.107
	c0.426,0.156,0.853,0.317,1.275,0.463c1.406,0.484,2.8,0.93,4.171,1.317l2.141,0.603c11.507,2.896,20.71,1.859,25.31-3.748
	c4.751-5.787,5.688-9.805,5.319-12.137c-7.098-0.164-14.339-2.182-21.668-6.155c-3.199-1.733-4.387-5.73-2.65-8.929
	c1.733-3.204,5.738-4.379,8.929-2.65c6.424,3.477,12.64,4.938,18.573,4.448c0.011-0.001,0.022-0.002,0.033-0.002
	c2.413-0.202,4.784-0.694,7.096-1.556c10.862-4.057,20.989-15.523,28.394-31.897c-6.999-2.829-12.646-8.005-16.094-14.845
	c-0.205-0.407-0.321-0.818-0.506-1.227c-5.534,3.976-11.971,7.001-19.115,8.736c-20.989,5.091-42.913-1.291-58.635-17.078
	c-2.569-2.578-2.56-6.75,0.017-9.315c2.578-2.573,6.746-2.556,9.315,0.017c12.446,12.502,29.699,17.579,46.194,13.574
	c13.424-3.259,23.644-12.176,27.345-23.854c2.179-6.875-0.064-14.818-5.228-18.467c-5.807-4.121-14.534-1.891-22.962,0.253
	c-2.659,0.678-5.249,1.334-7.703,1.806c-10.907,2.084-20.588,2.588-29.563,1.677c-0.039,0.001-0.072,0.021-0.111,0.021
	c-0.223,0-0.442-0.013-0.665-0.034c-0.165-0.017-0.317-0.069-0.478-0.097c-0.47-0.055-0.964-0.062-1.43-0.126
	c-4.284-0.592-8.303-1.9-12.189-3.169c-4.941-1.608-9.585-3.122-13.895-2.831c-8.41,0.596-12.231,13.226-12.913,15.752
	c-5.833,21.611,6.446,46.953,26.813,55.337c7.424,3.054,16.057,3.705,26.406,1.96c3.542-0.592,6.982,1.814,7.587,5.408
	c0.6,3.585-1.818,6.982-5.408,7.587c-4.503,0.755-8.783,1.137-12.862,1.137c-7.544,0-14.397-1.299-20.74-3.911
	c-8.342-3.434-15.588-8.916-21.376-15.691c-5.265,2.686-8.641,6.625-9.4,11.235C122.642,211.973,129.118,222.124,141.757,231.64z
	 M246.018,166.211c1.167,3.79,4.519,9.9,12.397,12.161c10.932,3.135,26.02-8.865,40.331-32.101
	c6.905-11.215,7.973-22.34,2.861-29.751c-2.442-3.54-6.071-5.727-10.005-6.182c-0.864,3.445-2.022,7.129-3.577,11.105
	C273.981,157.338,255.906,164.943,246.018,166.211z M968.442,140.082c2.788,11.927,12.291,21.607,25.419,25.891
	c16.108,5.267,33.727,1.544,47.099-9.963c2.762-2.372,6.922-2.054,9.294,0.699c2.372,2.762,2.058,6.918-0.699,9.294
	c-16.898,14.53-39.237,19.201-59.78,12.497c-6.988-2.281-13.173-5.794-18.385-10.188c-0.216,0.393-0.362,0.792-0.597,1.181
	c-3.967,6.556-9.993,11.285-17.193,13.567c6.123,16.894,15.33,29.11,25.844,33.99c7.758,3.598,16.447,3.298,25.852-0.896
	c3.315-1.475,7.214,0.013,8.698,3.337c1.48,3.319-0.013,7.218-3.337,8.698c-6.832,3.045-13.488,4.572-19.908,4.572
	c-0.757,0-1.503-0.08-2.254-0.122c-0.484,2.201,0.113,6.309,4.454,12.521c5.262,7.529,18.436,8.349,34.808,3.312l0.168-0.052
	c0.293-0.091,0.599-0.207,0.893-0.302c15.717-5.04,52.76-20.171,50.926-41.398c-0.4-4.654-3.463-8.842-8.506-11.925
	c-6.293,6.308-13.94,11.216-22.523,13.996c-5.108,1.655-10.473,2.483-16.173,2.483c-5.507,0-11.327-0.772-17.541-2.312
	c-3.53-0.875-5.683-4.447-4.808-7.981c0.879-3.525,4.443-5.678,7.981-4.808c10.19,2.526,18.853,2.552,26.483,0.086
	c20.95-6.789,35.146-31.11,31.003-53.103c-0.485-2.573-3.324-15.461-11.657-16.705c-4.267-0.639-9.023,0.523-14.076,1.75
	c-3.971,0.965-8.08,1.96-12.394,2.217c-0.436,0.027-0.897-0.003-1.337,0.016c-0.204,0.023-0.401,0.069-0.611,0.074
	c-0.043,0-0.086,0-0.133,0c-0.198,0-0.386-0.04-0.58-0.058c-8.991,0.234-18.636-1.027-29.381-3.957
	c-2.41-0.66-4.941-1.51-7.54-2.393c-8.243-2.788-16.765-5.67-22.876-2.029C969.652,125.316,966.8,133.057,968.442,140.082z
	 M955.612,143.091c-0.001-0.002-0.002-0.004-0.002-0.007c-2.938-12.57,2.406-26.165,12.707-32.32c0.652-0.39,1.31-0.734,1.97-1.053
	c-4.809-8.872-11.291-23.939-10.021-38.511c-6.657-2.746-15.376-3.129-21.43,1.468c-7.582,5.777-8.891,18.369-3.684,35.459
	C941.432,128.742,949.333,138.475,955.612,143.091z M947.685,171.008c7.945-1.627,11.75-7.355,13.211-11.178
	c-9.778-2.063-27.14-11.098-38.343-47.86c-1.244-4.084-2.114-7.845-2.709-11.347c-3.957,0.15-7.741,2.044-10.448,5.386
	c-5.674,6.995-5.464,18.167,0.553,29.884C922.42,160.166,936.521,173.29,947.685,171.008z M1002.177,111.626
	c2.337,0.789,4.615,1.565,6.78,2.157c6.86,1.87,13.119,2.927,18.993,3.341c-1.492-7.533-5.402-19.587-15.674-27.812
	c-2.839-2.273-3.298-6.42-1.025-9.259c2.273-2.843,6.424-3.298,9.259-1.025c14.47,11.582,19.208,28.211,20.765,37.61
	c1.791-0.346,3.632-0.774,5.542-1.238c3.078-0.746,6.38-1.511,9.812-1.942c-6.057-20.848-22.01-50.056-41.312-59.88
	c-9.234-4.7-18.356-4.769-27.881-0.214c-7.312,3.504-11.695,8.359-13.402,14.848c-3.458,13.156,4.851,30.628,9.995,39.035
	C990.419,107.658,996.668,109.76,1002.177,111.626z M349.005,626.439c10.014-50.1,33.643-108.509,56.38-148.436
	c1.227-2.149,3.585-3.435,6.021-3.319c2.47,0.112,4.675,1.595,5.7,3.847c7.285,15.991,18.08,31.73,30.114,45.987
	c-22.384-84.125-7.483-177.585,39.616-235.776c6.749-8.339,14.02-16.324,21.74-23.956c-0.028-0.116-0.077-0.221-0.099-0.34
	c-9.122-49.325-5.327-101.793,10.593-149.53c-49.423,26.847-90.024,68.589-115.358,118.969
	c-27.799,55.299-36.283,119.145-23.875,179.783c0.643,3.139-1.068,6.287-4.053,7.454c-2.985,1.171-6.382,0.026-8.037-2.719
	c-17.331-28.623-29.142-60.582-34.691-93.58c-21.782,51.966-32.719,102.17-32.551,149.526
	C300.713,532.212,317.875,585.644,349.005,626.439z M306.161,1019.432c-0.223-0.009-0.45-0.013-0.673-0.013
	c-6.493,0-12.373,3.199-17.485,9.512c-8.599,10.619-13.175,28.987-10.207,40.944c5.185,20.903,27.572,36.029,48.917,33.019
	c9.675-1.364,17.79-6.176,21.705-12.87c4.276-7.308,3.667-16.434,2.406-22.807C347.157,1048.673,327.472,1020.153,306.161,1019.432z
	 M702.79,182.596c-37.067,52.391-49.513,121.071-32.375,183.124c0.678,2.449,2.702,4.289,5.202,4.735
	c2.522,0.42,5.039-0.596,6.51-2.663c21.431-30.034,48.012-64.001,82.695-88.228c31.724-22.147,67.522-33.105,100.013-30.87
	c-29.489,37.042-46.4,84.351-46.747,131.672c-0.159,21.259,2.895,42.433,5.846,62.911c2.149,14.899,4.37,30.304,5.284,45.418
	c1.711,28.293-1.425,66.872-25.058,93.01c-2.675-2.371-5.299-4.779-7.768-7.288c-33.894-34.438-47.335-86.744-34.241-133.259
	c0.802-2.852-0.403-5.893-2.942-7.424c-2.53-1.535-5.781-1.179-7.938,0.862c-23.005,21.847-46.798,44.435-64.785,71.78
	c-12.6,19.149-26.663,47.712-27.195,80.293c-26.277-21.246-45.598-54.488-54.994-95.077c-9.667-41.742-8.35-85.577-7.076-127.971
	c0.077-2.496-1.265-4.816-3.465-6c-2.204-1.179-4.881-1.016-6.913,0.42c-66.848,47.146-101.964,133.135-88.691,213.484
	c-9.212-6.324-19.638-14.853-30.056-24.822c-32.217-86.226-20.394-188.665,28.984-249.678
	C544.768,238.105,619.083,196.933,702.79,182.596z M660.98,416.37c-3.637,0.116-6.489,3.161-6.369,6.798l0.623,19.166l-17.04,1.201
	c-3.628,0.257-6.365,3.405-6.107,7.034c0.244,3.474,3.135,6.124,6.562,6.124c0.159,0,0.313-0.004,0.472-0.017l16.543-1.166
	l0.552,16.991c0.116,3.564,3.041,6.373,6.579,6.373c0.073,0,0.146,0,0.219-0.004c3.637-0.116,6.489-3.161,6.369-6.798l-0.568-17.489
	l12.169-0.858c3.628-0.253,6.364-3.405,6.107-7.034c-0.253-3.633-3.431-6.42-7.033-6.107l-11.672,0.823l-0.607-18.668
	C667.657,419.102,664.625,416.13,660.98,416.37z M455.789,779.131c2.942-21.596-12.231-41.56-33.822-44.507
	c-19.731-2.691-39.184-7.462-58.063-14.043c-5.096-19.122-7.328-37.862-6.596-56.087c1.964-48.904,28.031-120.719,53.566-169.087
	c11.798,21.373,28.965,42.362,46.844,59.725c0.033,0.034,0.068,0.064,0.101,0.097c16.151,15.671,32.875,28.387,46.764,35.627
	c2.294,1.201,5.074,0.939,7.111-0.656c2.033-1.595,2.946-4.237,2.333-6.75c-18.309-74.92,10.173-157.825,69.623-206.446
	c-1.055,38.907-1.175,78.754,7.814,117.562c11.412,49.299,36.784,88.699,71.441,110.949c2.136,1.364,4.868,1.39,7.021,0.06
	c2.157-1.334,3.358-3.783,3.088-6.304c-3.671-34.464,11.284-65.6,24.476-85.654c13.312-20.238,30.287-38.058,47.725-54.994
	c-5.691,45.147,9.675,92.409,41.785,125.033c11.944,12.137,25.985,22.276,39.563,32.08c21.752,15.705,42.3,30.54,54.218,52.567
	c1.312,2.424,2.467,4.951,3.531,7.529c0.661,2.073,1.306,4.147,2.028,6.217c-7.893,4.45-15.928,8.636-24.175,12.361
	c-9.622,4.346-16.975,12.179-20.705,22.055c-3.73,9.876-3.39,20.614,0.957,30.235c5.995,13.276,18.864,22.036,33.259,23.059
	c-10.102,18.77-24.961,36.984-45.136,55.238c-6.119-1.979-12.226-3.924-18.22-5.818c-21.842-6.901-44.431-14.033-65.553-22.983
	c-29.588-12.553-68.774-0.06-92.173,18.759c-5.955,4.791-11.325,10.275-16.127,16.248c-48.035,14.519-94.095,29.548-138.047,45.013
	c-0.468-0.374-0.974-0.71-1.554-0.953c-35.772-14.946-65.605-36.203-87.867-62.355c0.095,0.013,0.19,0.031,0.286,0.044
	c1.798,0.243,3.601,0.365,5.375,0.365C436.304,813.316,453.126,798.62,455.789,779.131z M619.135,678.809
	c0.901,4.104,4.533,6.901,8.569,6.901c0.622,0,1.257-0.064,1.891-0.206l12.421-2.727c-1.71,8.054-2.69,16.599-2.69,25.397
	c0,40.018,17.961,71.364,40.893,71.364c22.932,0,40.893-31.346,40.893-71.364c0-15.07-2.566-29.284-7.29-41.161l30.702-6.74
	c4.739-1.038,7.737-5.721,6.695-10.46c-1.038-4.735-5.713-7.745-10.46-6.695l-114.929,25.231
	C621.09,669.387,618.092,674.07,619.135,678.809z M474.918,660.274l30.705,6.741c-4.725,11.879-7.289,26.093-7.289,41.16
	c0,40.018,17.961,71.364,40.893,71.364s40.893-31.346,40.893-71.364c0-8.797-0.981-17.343-2.69-25.397l12.421,2.727
	c0.635,0.142,1.265,0.206,1.891,0.206c4.036,0,7.668-2.796,8.569-6.901c1.042-4.739-1.956-9.422-6.695-10.46l-114.933-25.231
	c-4.709-1.051-9.418,1.956-10.46,6.695C467.181,654.552,470.179,659.236,474.918,660.274z M834.274,605.052
	c14.68,10.599,29.629,21.5,41.961,34.873c-6.246-46.034,2.214-90.204,11.965-122.247c15.143-49.779,40.035-95.823,64.802-140.305
	c-43.162-1.9-87.597,17.198-115.431,50.234c-0.649,0.77-1.444,1.334-2.304,1.726c0.557,4.042,1.132,8.07,1.708,12.066
	c2.183,15.161,4.447,30.84,5.391,46.498c1.858,30.727-1.719,72.781-28.098,102.268C820.804,595.316,827.593,600.229,834.274,605.052
	z M388.976,1030.064c18.737,31.098,19.038,69.537,0.733,93.473c-15.199,19.878-43.428,30.051-70.168,25.312
	c-24.754-4.392-48.634-21.118-63.872-44.744c-17.082-26.479-21.915-58.563-12.93-85.817c8.543-25.93,41.382-50.774,71.965-54.578
	c37.706,4.396,53.124,30.544,69.439,58.215C385.751,1024.647,387.355,1027.366,388.976,1030.064z M363.75,1064.661
	c-4.696-23.734-28.704-57.435-57.143-58.395c-10.962-0.356-20.929,4.602-28.842,14.376c-11.245,13.883-16.726,36.416-12.759,52.408
	c6.167,24.836,31.033,43.389,56.431,43.389c2.372,0,4.752-0.163,7.119-0.498c13.625-1.921,25.303-9.122,31.235-19.265
	C366.147,1085.804,365.453,1073.264,363.75,1064.661z M662.404,1002.882c0.566,0.444,1.162,0.831,1.733,1.265
	c-89.275,28.631-175.247,67.043-256.137,114.439c7.659-16.054,10.013-35.243,7.046-54.515c0.898-0.675,1.665-1.547,2.134-2.656
	c4.821-11.417,18.755-16.615,26.633-18.699c4.679-1.239,9.435-2.119,14.474-3.049c8.209-1.514,16.696-3.084,24.87-6.33
	c7.733-3.075,14.642-7.437,21.323-11.657c2.037-1.287,4.07-2.569,6.124-3.813c21.791-13.205,46.64-22.065,71.862-25.634
	c3.602-0.51,6.111-3.843,5.601-7.445c-0.515-3.603-3.86-6.103-7.445-5.601c-26.972,3.813-53.545,13.295-76.845,27.409
	c-2.123,1.287-4.224,2.616-6.33,3.941c-6.459,4.079-12.562,7.934-19.158,10.555c-6.969,2.771-14.462,4.156-22.396,5.622
	c-5.056,0.931-10.289,1.9-15.452,3.264c-12.808,3.386-22.9,9.269-29.48,16.936c-2.618-8.121-6.143-16.092-10.697-23.652
	c-1.604-2.655-3.186-5.339-4.769-8.028c-13.814-23.429-29.163-49.462-59.943-60.239c85.48-37.552,183.376-73.324,291.486-106.527
	c-8.345,15.497-13.237,33.017-13.958,50.923c-10.241,6.611-23.176,8.304-36.85,10.019c-6.064,0.763-12.339,1.548-18.437,2.809
	c-20.054,4.143-38.105,13.441-55.56,22.434c-3.238,1.664-4.507,5.635-2.839,8.869c1.167,2.273,3.47,3.573,5.858,3.573
	c1.016,0,2.046-0.236,3.011-0.733c16.67-8.586,33.907-17.464,52.194-21.242c5.592-1.154,11.335-1.874,17.416-2.638
	c12.067-1.515,24.443-3.089,35.578-8.243C616.517,948.145,634.604,981.063,662.404,1002.882z M449.747,970.425
	c0.184-3.633-2.616-6.725-6.249-6.909c-11.631-0.605-23.352,2.578-33.1,8.908c-3.054,1.977-3.92,6.06-1.939,9.109
	c1.261,1.947,3.375,3.002,5.528,3.002c1.231,0,2.475-0.343,3.581-1.064c7.449-4.829,16.426-7.231,25.269-6.798
	C446.462,976.837,449.563,974.058,449.747,970.425z M1026.104,988.609c-5.571-3.577-11.031-4.079-16.705-1.552
	c-23.082,10.314-32.367,34.67-38.967,59.454c-2.033,7.642-3.796,16.996,0.639,21.486c4.43,4.486,13.793,2.835,21.465,0.914
	c12.579-3.178,25.587-6.459,36.205-13.424c8.517-5.584,17.584-15.868,17.468-27.992
	C1046.098,1015.135,1037.812,996.127,1026.104,988.609z M777.191,1000.596c-0.476,3.607,2.063,6.918,5.67,7.394l59.78,7.891
	c21.484,2.838,43.627,5.831,63.817,13.698c-4.421,20.957-3.552,43.083,2.774,63.512l-173.157-67.449
	c-22.756-8.865-46.292-18.034-65.54-33.126c-25.84-20.281-42.381-51.156-44.247-82.588c-0.119-2.013-0.176-4.025-0.175-6.033
	c0.073-0.494,0.084-0.994,0.043-1.494c0.342-22.272,7.978-44.022,21.162-61.192c0.093-0.108,0.179-0.219,0.265-0.333
	c1.87-2.414,3.841-4.741,5.926-6.959c11.278,2.006,22.856,4.124,33.893,7.233c17.356,4.881,34.284,12.437,50.654,19.75
	c0.871,0.386,1.784,0.57,2.68,0.57c2.522,0,4.923-1.454,6.021-3.903c1.48-3.32-0.009-7.218-3.332-8.702
	c-16.799-7.501-34.172-15.259-52.455-20.401c-8.223-2.313-16.579-4.061-24.868-5.627c14.49-10.523,35.053-18.527,54.173-18.527
	c7.505,0,14.779,1.231,21.354,4.014c21.697,9.195,44.586,16.426,66.724,23.421c10.362,3.272,21.075,6.656,31.509,10.194
	c47.416,16.078,99.044,44.495,148.973,71.978c11.425,6.287,22.559,12.416,33.435,18.283c-4.04,0.107-8.11,0.442-12.167,1.008
	c-15.497,2.163-30.48,7.512-44.068,15.319c-8.681-10.079-21.89-16.706-39.373-19.646c-7.227-1.214-14.504-1.754-21.542-2.277
	c-6.858-0.51-13.338-0.991-19.792-2.041c-35.403-5.764-66.587-28.494-94.094-48.544c-2.938-2.144-7.068-1.501-9.204,1.441
	c-2.144,2.942-1.497,7.064,1.441,9.204c28.7,20.92,61.23,44.633,99.738,50.903c7.025,1.145,14.097,1.668,20.938,2.179
	c7.051,0.523,13.707,1.016,20.328,2.132c13.504,2.27,23.67,6.953,30.347,13.891c-14.829,10.709-27.395,24.54-36.167,40.55
	c-3.573,6.519-6.473,13.386-8.77,20.454c-21.237-8.044-43.706-11.07-65.519-13.952l-59.78-7.891
	C781.004,994.455,777.667,996.989,777.191,1000.596z M833.099,965.639c0.939,0.459,1.93,0.678,2.908,0.678
	c2.432,0,4.769-1.351,5.914-3.675c1.608-3.264,0.266-7.214-2.998-8.822c-25.831-12.725-55.11-27.143-86.409-30.364
	c-5.605-0.575-11.224-0.789-16.657-0.999c-6.227-0.236-12.111-0.459-17.987-1.184c-12.321-1.505-21.842-5.206-28.293-10.996
	c-2.719-2.432-6.879-2.2-9.302,0.502c-2.432,2.711-2.204,6.875,0.502,9.302c8.5,7.63,20.44,12.429,35.489,14.273
	c6.424,0.785,12.862,1.034,19.089,1.269c5.464,0.21,10.627,0.407,15.813,0.939C780.116,939.538,807.049,952.807,833.099,965.639z
	 M1093.608,977.746c15.341,22.357,15.877,55.037,1.338,81.323c-13.136,23.751-37.968,42.733-68.13,52.086
	c-31.831,9.868-63.507,16.439-100.849-10.812c-13.539-30.857-11.957-68.135,4.242-97.697c16.46-30.047,47.772-51.653,81.713-56.392
	c16.859-2.346,33.744-0.154,48.355,5.734c0.172,0.081,0.347,0.15,0.527,0.214C1074.356,957.769,1085.914,966.522,1093.608,977.746z
	 M1059.384,1027.375c-0.15-16.344-9.98-39.461-26.165-49.852c-9.332-5.991-19.424-6.862-29.189-2.492
	c-28.203,12.596-39.246,41.489-46.327,68.092c-1.887,7.094-6.304,23.704,3.993,34.13c5.198,5.262,12.013,6.798,18.403,6.798
	c6.27,0,12.137-1.48,15.658-2.367c12.999-3.281,27.735-6.999,40.207-15.173C1050.545,1056.95,1059.522,1041.952,1059.384,1027.375z
	 M591.322,137.942c7.045,1.049,14.106,1.561,21.162,1.611l0.32,11.487c0.099,3.572,3.028,6.403,6.579,6.403
	c0.064,0,0.124,0,0.189-0.004c3.637-0.099,6.502-3.131,6.399-6.768l-0.324-11.615c6.304-0.51,12.591-1.37,18.83-2.679
	c3.56-0.746,5.841-4.237,5.095-7.797c-0.742-3.564-4.267-5.858-7.797-5.095c-5.467,1.144-10.973,1.927-16.494,2.402l-0.768-27.542
	c-0.099-3.641-3.187-6.643-6.768-6.399c-3.637,0.099-6.502,3.131-6.399,6.768l0.771,27.684c-6.289-0.065-12.584-0.551-18.857-1.484
	c-3.611-0.549-6.948,1.951-7.484,5.545C585.241,134.056,587.724,137.41,591.322,137.942z M780.648,198.692c0.056,0,0.112,0,0.167,0
	l19.11-0.474l1.094,20.275c0.189,3.512,3.096,6.232,6.575,6.232c0.12,0,0.24-0.004,0.36-0.009c3.633-0.197,6.416-3.302,6.223-6.935
	l-1.073-19.89l14.064-0.349c3.637-0.09,6.51-3.114,6.424-6.75c-0.094-3.637-3.242-6.502-6.75-6.424l-14.449,0.358l-1.201-22.261
	c-0.193-3.633-3.371-6.347-6.935-6.223c-3.633,0.197-6.416,3.302-6.223,6.935l1.18,21.876l-18.726,0.464
	c-3.637,0.094-6.515,3.114-6.424,6.75C774.155,195.848,777.088,198.692,780.648,198.692z M937.053,544.491
	c0.219,3.491,3.118,6.176,6.57,6.176c0.137,0,0.274-0.004,0.416-0.013l17.326-1.079l1.149,17.342c0.232,3.478,3.126,6.15,6.566,6.15
	c0.15,0,0.296-0.004,0.446-0.013c3.628-0.24,6.377-3.38,6.137-7.012l-1.145-17.287l17.361-1.082c3.628-0.227,6.39-3.354,6.163-6.986
	c-0.223-3.628-3.307-6.399-6.986-6.163l-17.409,1.084l-0.955-14.422c-0.24-3.628-3.41-6.373-7.012-6.137
	c-3.628,0.24-6.377,3.38-6.137,7.012l0.952,14.367l-17.279,1.076C939.588,537.732,936.826,540.859,937.053,544.491z
	 M255.014,382.094c-0.472-3.607-3.787-6.171-7.385-5.678l-15.325,2.007l-1.633-15.898c-0.369-3.624-3.654-6.232-7.226-5.88
	c-3.62,0.373-6.253,3.607-5.88,7.226l1.67,16.263l-17.942,2.35c-3.607,0.472-6.146,3.783-5.674,7.389
	c0.433,3.315,3.268,5.73,6.523,5.73c0.287,0,0.575-0.017,0.866-0.056l17.574-2.302l1.588,15.464
	c0.347,3.392,3.208,5.914,6.545,5.914c0.227,0,0.455-0.013,0.682-0.034c3.62-0.373,6.253-3.607,5.88-7.227l-1.626-15.829
	l15.684-2.055C252.942,389.008,255.486,385.701,255.014,382.094z M416.66,800.142c12.969,0,24.27-9.581,26.075-22.795
	c1.964-14.419-8.131-27.701-22.55-29.669c-106.317-14.5-205.069-86.358-251.58-183.055c-44.72-92.969-41.299-209.288,7.93-299.991
	c-13.028-3.671-27.635-11.148-42.613-22.396c-1.289-0.968-2.489-1.93-3.644-2.887c-58.07,106.503-61.885,238.525-9.166,348.116
	c54.806,113.943,166.677,195.343,291.954,212.433C414.271,800.06,415.472,800.142,416.66,800.142z M889.281,754.441
	c95.909-43.325,173.281-128.713,206.969-228.421c31.7-93.844,24.829-201.021-17.747-290.527c-3.172,2.9-6.997,5.851-11.631,8.801
	c-12.119,7.714-23.843,13.21-34.653,16.587c35.667,76.762,41.173,168.142,14.101,248.272
	c-29.09,86.105-95.909,159.849-178.732,197.264c-13.265,5.991-19.158,21.598-13.166,34.859c4.4,9.744,13.99,15.512,24.03,15.512
	C882.076,756.787,885.764,756.032,889.281,754.441z"/>
</svg>
